HIERARCHY
ROOT Hips
{
	OFFSET 14.163189 13.148666 7.945349
	CHANNELS 6 Xposition Yposition Zposition Zrotation Yrotation Xrotation
	JOINT LHipJoint
	{
		OFFSET -3.112569 -4.256290 -3.583462
		CHANNELS 3 Zrotation Yrotation Xrotation
		JOINT LeftUpLeg
		{
			OFFSET -4.617091 -13.765049 -6.503381
			CHANNELS 3 Zrotation Yrotation Xrotation
			JOINT LeftLeg
			{
				OFFSET 1.579463 2.720243 -2.523476
				CHANNELS 3 Zrotation Yrotation Xrotation
				JOINT LeftFoot
				{
					OFFSET 14.491033 -3.940879 -10.051031
					CHANNELS 3 Zrotation Yrotation Xrotation
					JOINT LeftToeBase
					{
						OFFSET -1.517977 -3.896008 -14.480274
						CHANNELS 3 Zrotation Yrotation Xrotation
						End Site
						{
							OFFSET 0.000000 0.000000 0.000000
						}
					}
				}
			}
		}
	}
	JOINT RHipJoint
	{
		OFFSET 5.201408 -5.714355 26.088055
		CHANNELS 3 Zrotation Yrotation Xrotation
		JOINT RightUpLeg
		{
			OFFSET -25.756065 -14.480148 45.822437
			CHANNELS 3 Zrotation Yrotation Xrotation
			JOINT RightLeg
			{
				OFFSET 22.924599 -14.459176 -25.223145
				CHANNELS 3 Zrotation Yrotation Xrotation
				JOINT RightFoot
				{
					OFFSET -1.672073 3.492513 24.910275
					CHANNELS 3 Zrotation Yrotation Xrotation
					JOINT RightToeBase
					{
						OFFSET 24.114935 46.754005 45.094875
						CHANNELS 3 Zrotation Yrotation Xrotation
						End Site
						{
							OFFSET 0.000000 0.000000 0.000000
						}
					}
				}
			}
		}
	}
	JOINT LowerBack
	{
		OFFSET 40.503361 30.465973 19.198257
		CHANNELS 3 Zrotation Yrotation Xrotation
		JOINT Spine
		{
			OFFSET 29.856903 33.426388 43.793991
			CHANNELS 3 Zrotation Yrotation Xrotation
			JOINT Spine1
			{
				OFFSET 36.399609 35.110294 44.619202
				CHANNELS 3 Zrotation Yrotation Xrotation
				JOINT Neck
				{
					OFFSET 41.112900 47.064613 51.667690
					CHANNELS 3 Zrotation Yrotation Xrotation
					JOINT Neck1
					{
						OFFSET 33.835327 34.896580 9.413924
						CHANNELS 3 Zrotation Yrotation Xrotation
						JOINT Head
						{
							OFFSET 25.516005 31.772675 16.105915
							CHANNELS 3 Zrotation Yrotation Xrotation
							End Site
							{
								OFFSET 0.000000 0.000000 0.000000
							}
						}
					}
				}
				JOINT LeftShoulder
				{
					OFFSET 28.273888 -9.332151 32.957546
					CHANNELS 3 Zrotation Yrotation Xrotation
					JOINT LeftArm
					{
						OFFSET 45.021233 7.477647 65.946198
						CHANNELS 3 Zrotation Yrotation Xrotation
						JOINT LeftForeArm
						{
							OFFSET 39.442112 59.676529 57.329288
							CHANNELS 3 Zrotation Yrotation Xrotation
							JOINT LeftHand
							{
								OFFSET 28.682301 29.306055 17.505648
								CHANNELS 3 Zrotation Yrotation Xrotation
								JOINT LeftFingerBase
								{
									OFFSET 34.506310 46.467575 56.592594
									CHANNELS 3 Zrotation Yrotation Xrotation
									JOINT LeftHandIndex1
									{
										OFFSET 48.805241 8.953339 -22.415043
										CHANNELS 3 Zrotation Yrotation Xrotation
										End Site
										{
											OFFSET 0.000000 0.000000 0.000000
										}
									}
								}
								JOINT LThumb
								{
									OFFSET 27.520792 7.866117 12.095293
									CHANNELS 3 Zrotation Yrotation Xrotation
									End Site
									{
										OFFSET 0.000000 0.000000 0.000000
									}
								}
							}
						}
					}
				}
				JOINT RightShoulder
				{
					OFFSET 12.908479 10.710455 12.677073
					CHANNELS 3 Zrotation Yrotation Xrotation
					JOINT RightArm
					{
						OFFSET -7.548068 8.597585 -7.678245
						CHANNELS 3 Zrotation Yrotation Xrotation
						JOINT RightForeArm
						{
							OFFSET -22.200432 -6.338178 -10.508860
							CHANNELS 3 Zrotation Yrotation Xrotation
							JOINT RightHand
							{
								OFFSET -9.894324 -2.966406 -5.441902
								CHANNELS 3 Zrotation Yrotation Xrotation
								JOINT RightFingerBase
								{
									OFFSET -2.054240 -6.583667 -9.198849
									CHANNELS 3 Zrotation Yrotation Xrotation
									JOINT RightHandIndex1
									{
										OFFSET -8.268567 -8.448813 -12.924449
										CHANNELS 3 Zrotation Yrotation Xrotation
										End Site
										{
											OFFSET 0.000000 0.000000 0.000000
										}
									}
								}
								JOINT RThumb
								{
									OFFSET -4.253601 2.923511 16.639395
									CHANNELS 3 Zrotation Yrotation Xrotation
									End Site
									{
										OFFSET 5.418124 3.908220 1.921077
									}
								}
							}
						}
					}
				}
			}
		}
	}
}
MOTION
Frames: 9
Frame Time: 0.008333
14.381107 17.548414 -67.373955 -12.426626 -5.708899 17.636402 22.733923 -9.806422 -15.016372 -94.224976 -71.921097 -145.543427 -17.464146 12.338235 48.828445 -3.536572 -48.394459 -86.015053 1.921479 -6.663304 22.608746 -308.505981 -124.738777 -9.087039 43.995110 17.591904 -17.309652 45.539322 26.032265 118.314835 -18.422285 -34.184589 -3.943581 4.335790 -3.458753 5.188579 41.811707 23.092169 86.915962 13.533503 17.835098 26.462421 35.895016 29.001753 49.725231 -11.544312 21.506680 2.718177 14.118603 36.804363 108.770386 26.091341 -33.071880 13.183254 -20.620680 -139.713516 0.182821 -177.672913 98.962021 -100.418320 -293.136780 -127.607010 -86.217888 3.639611 -4.123210 -162.360214 -171.870117 -441.365448 -660.024048 -7.125000 0.000000 0.000000 -172.584137 -281.676331 -439.873535 -68.954628 2.525445 2.862808 -76.272797 -73.177330 -107.492081 -47.870792 -0.902077 -42.101292 -3.600884 2.540169 33.206360 44.427849 28.156328 -81.350113 7.125000 0.000000 0.000000 -315.580261 -56.792938 45.835556
-14.292437 18.278984 72.398994 11.188207 -3.685566 22.599129 55.200127 16.760918 27.857384 5.649513 52.951813 -44.089558 -8.684126 22.865383 81.494759 9.346308 67.194260 81.798126 12.733315 28.454199 178.243500 -315.387451 -134.977005 29.512905 154.998993 85.791481 63.692249 57.910019 36.761417 147.303772 -12.419171 52.340790 146.885956 12.229006 6.012553 -25.081797 22.334784 13.478125 93.641006 18.283314 32.662689 57.722885 75.195274 52.977341 96.765480 23.009752 49.679829 38.384792 14.398806 70.427284 204.512085 66.864662 17.973022 94.070549 47.268082 -89.489037 23.693520 104.606812 748.245972 796.076782 329.861053 306.382385 414.133942 41.409618 86.941971 719.940369 162.629044 -88.282410 -460.731567 -7.125000 0.000000 0.000000 736.098877 258.009430 212.961578 72.646454 119.081963 41.122993 93.856003 73.893646 199.166367 68.357368 71.424347 17.068558 1.219285 10.703465 144.099319 352.109131 176.071304 289.172852 7.125000 0.000000 0.000000 244.107635 230.562286 422.899139
-15.010466 17.317083 -19.864885 -18.959097 -15.567104 16.199024 47.907398 3.498901 2.510136 -87.119095 -40.840912 -59.064106 -11.509426 3.261540 14.191227 -17.951887 28.716389 24.691513 5.227094 3.327800 164.897171 -302.648163 -152.032974 6.962108 110.111671 68.059746 53.155422 64.506790 35.228420 183.461807 -5.619616 77.592133 158.146133 17.671804 42.139111 144.152176 53.008640 44.108765 127.248848 31.162977 58.515743 86.062469 99.586403 53.003464 94.068810 28.937281 56.980370 92.914009 28.009106 124.873131 264.714294 82.719902 27.860809 102.733124 87.594795 -95.345383 31.245081 40.532997 548.852600 262.710663 -80.363037 67.798904 108.194748 22.609674 46.462162 422.290741 103.313843 87.547340 -366.426880 -7.125000 0.000000 0.000000 306.476837 -21.361576 -166.693802 24.048769 100.895340 30.395895 51.977470 83.225777 232.650436 40.455612 60.663105 10.407920 -0.718836 7.359653 106.442101 142.045517 64.773102 -41.687069 7.125000 0.000000 0.000000 117.918068 174.643570 251.106125
2.120934 22.299376 226.754944 6.815450 20.619976 -4.840950 13.312787 -11.072262 -8.611287 -117.650696 -87.025932 -156.416565 -41.537537 -21.874069 -60.133514 -36.694763 -12.563755 -41.209778 -3.698243 -19.502234 70.161186 -360.905792 -183.051285 -26.846441 3.730209 -44.604866 -139.398697 18.842506 -38.116581 -63.225597 -71.818733 -183.896545 -255.661880 -27.166079 -112.359230 -428.798187 -80.639915 -62.344421 -43.870079 -47.400764 -109.080276 -84.961571 -40.909138 -67.567894 -171.790161 -205.720245 -131.538223 -186.283173 -100.111771 -162.615540 -154.076157 -89.366806 -87.464310 -83.204330 -70.720963 -287.361816 -21.278324 -256.384644 93.297859 -416.793518 -629.357422 -307.900116 -307.149902 0.734113 -1.899423 -456.465332 -415.081055 -1001.032288 -1280.870117 -7.125000 0.000000 0.000000 -642.175720 -1011.872681 -1574.564453 -122.492691 31.847261 5.993287 -119.536499 -99.848251 -133.117249 -135.722046 -49.184555 -125.657333 -17.730017 -9.985515 -131.082443 -476.165405 -155.338562 -479.409790 7.125000 0.000000 0.000000 -657.760132 -163.912354 -523.584961
-1.774629 17.777319 28.465513 -15.560410 -23.940191 -18.125305 20.654091 0.465062 9.848433 -47.322723 -13.398889 -89.410629 -22.363272 -2.493733 6.174126 4.821048 116.806427 54.474960 7.436118 29.484304 283.582916 -225.874222 -116.178795 37.210354 171.217834 73.217339 84.697388 74.081772 31.799145 217.549210 3.827495 104.457863 156.321213 19.250324 56.568859 150.256775 39.696117 32.393288 104.422478 22.620844 27.669863 49.509659 85.388680 44.829067 89.553322 46.962875 68.385414 73.830666 10.766493 112.315071 214.346680 111.029434 52.451546 161.958069 177.540298 -55.836517 49.397377 133.763275 734.687378 706.578491 203.018387 229.322098 258.764740 24.677881 55.859333 663.964111 191.953461 261.541168 -484.237640 -7.125000 0.000000 0.000000 543.851807 -2.281494 -101.049332 -8.915141 91.816620 21.225035 -29.837288 16.848272 162.062943 37.178566 82.454361 15.522042 3.776608 11.410641 191.496399 338.620880 240.366760 372.119629 7.125000 0.000000 0.000000 321.057312 273.268219 318.026917
-2.726497 19.224312 128.468018 14.597881 25.103111 4.761295 39.479244 3.559138 13.647857 -54.132210 -29.134880 -133.232849 -28.287424 -12.613025 -33.665375 -8.387466 28.146809 -11.795887 4.191895 -10.487053 99.225449 -308.789429 -158.984039 -25.540306 -2.953289 -38.209637 -50.900227 40.254375 -18.055811 -20.701599 -67.943680 -166.568619 -233.882095 -21.338158 -91.451149 -298.504211 -56.172661 -57.363197 -47.433060 -45.454872 -104.869911 -84.366837 -28.548428 -55.267994 -145.569626 -166.431702 -111.062531 -171.335419 -85.767967 -120.870041 -132.678070 -94.925446 -108.158661 -123.093033 -73.753105 -257.400787 -14.548080 -237.662323 19.673061 -370.726929 -572.553833 -278.403259 -195.567902 2.506759 9.719684 114.851006 -136.240051 -273.582672 -929.741394 -7.125000 0.000000 0.000000 -117.645828 -672.608154 -880.182922 -84.920448 52.295330 14.459549 -74.685608 -79.052887 -74.789093 -103.247459 -30.436916 -93.811455 -9.843057 -2.670369 12.330564 -108.973083 56.622169 -40.819313 7.125000 0.000000 0.000000 -132.919601 54.536457 37.230244
-3.511706 18.580090 100.077995 1.271016 27.936111 12.344265 51.569767 7.185438 21.995359 -26.916592 1.528934 -87.268967 -14.868710 -0.154735 28.334763 1.151439 60.675343 27.773039 5.613611 -2.131314 132.066177 -290.134644 -148.517365 -9.148374 61.939514 6.855721 7.792461 50.658466 -5.962320 74.646347 -34.385284 40.860256 49.699001 11.004467 22.618671 66.020660 22.764088 8.766975 66.215881 -2.739120 -17.658056 0.386695 46.301144 4.665802 -12.989208 -25.460707 5.867426 -22.251865 -30.921429 -20.516041 13.919168 10.379192 -22.205166 43.558083 84.781029 -179.420380 8.410037 -121.715408 190.489258 54.365486 -252.716522 -44.609497 27.325825 6.239000 12.437346 34.972317 -221.849731 -81.920021 -727.753479 -7.125000 0.000000 0.000000 322.649506 -274.200775 -243.026596 -6.123361 109.994614 31.337111 34.474117 20.203888 113.331909 15.509166 59.515419 2.219985 -0.496647 2.612845 61.894356 -88.680466 56.929604 -39.802341 7.125000 0.000000 0.000000 -141.850021 14.730396 -138.373337
-6.463767 17.717684 72.743294 -10.139589 10.649085 -11.601332 28.333088 -5.424637 3.277488 -73.057640 -44.797684 -105.596451 -12.135431 3.331409 35.494652 -4.221312 28.865364 -35.946648 -1.150660 -27.663410 77.684258 -297.853149 -152.906570 -14.754137 50.217140 -0.852400 -1.902437 50.413769 -3.891022 21.463263 -56.109135 -82.329803 -144.550049 -10.114200 -57.552216 -285.886810 -60.323364 -61.113377 -31.468735 -39.837082 -84.842178 -56.446625 3.341925 -30.804001 -97.132103 -114.655083 -78.404770 -130.956848 -64.047913 -80.498871 -59.870079 -48.023415 -80.818642 -77.785812 -14.168497 -249.665695 -5.463834 -189.959900 50.313160 -141.073792 -455.262695 -179.009232 -127.357765 0.265557 9.261951 190.794052 -171.632263 -7.957822 -788.457153 -7.125000 0.000000 0.000000 -81.007858 -561.758850 -544.628357 -66.698013 62.740303 12.306530 -79.110672 -81.587959 -102.853317 -87.973541 -23.661289 -60.643597 -8.203162 -4.188270 -31.967199 -314.427765 -30.665800 -208.930283 7.125000 0.000000 0.000000 -283.017548 -59.685020 -142.254303
-7.460649 16.976633 35.868416 -22.281332 -11.978045 -23.878489 15.645877 -4.951573 4.229245 -51.708832 -15.622569 -66.815750 -11.348482 2.771514 21.396755 4.269935 85.495224 29.551826 7.254847 -8.115843 126.755653 -279.606567 -147.331573 -16.931808 0.606342 -64.630157 -79.241066 25.280838 -30.319874 -67.271469 -76.551964 -156.391754 -216.390656 -15.837489 -66.496399 -239.896729 -22.962528 -22.405035 26.834000 -16.226242 -47.525650 -26.932777 30.305265 -9.489042 -35.039635 -49.673531 -17.309835 -35.318634 -18.935482 29.259445 78.249268 24.567774 -25.745623 13.380287 76.383804 -162.427124 19.371569 -60.363693 338.819458 306.160950 -110.801270 124.416229 157.713715 15.784194 33.161652 228.640366 -190.950378 -147.837906 -853.224915 -7.125000 0.000000 0.000000 216.995346 -311.610443 -157.053253 -20.761553 99.711151 23.953478 -14.495407 11.886923 28.717752 -10.739321 34.320236 -12.356081 -2.355645 2.746900 53.473763 -52.463615 62.991589 -30.134888 7.125000 0.000000 0.000000 -255.571503 -49.149391 -284.652435
